<svg width="56" height="56" viewBox="0 0 56 56" fill="none" xmlns="http://www.w3.org/2000/svg">
<path d="M54.25 25.7695H1.75V52.0808H54.25V25.7695Z" fill="#212121"/>
<path d="M1.75 51.4863V52.6807C1.75 53.547 2.45438 54.2513 3.32063 54.2513H52.6838C53.55 54.2513 54.2544 53.547 54.2544 52.6807V51.4863H1.75Z" fill="#B0BEC5"/>
<path d="M52.4387 53.6554C51.9575 53.6554 51.5637 53.2616 51.5637 52.7804V51.7129H53.3137V52.7804C53.3137 53.2616 52.9243 53.6554 52.4387 53.6554Z" fill="#B9E4EA"/>
<path d="M3.51752 53.6554C3.03627 53.6554 2.64252 53.2616 2.64252 52.7804V51.7129H4.39252V52.7804C4.39252 53.2616 4.00314 53.6554 3.51752 53.6554Z" fill="#B9E4EA"/>
<path d="M53.4975 50.6933H51.3625C50.9513 50.6933 50.6188 50.3608 50.6188 49.9495V29.8727C50.6188 29.4614 50.9513 29.1289 51.3625 29.1289H53.4975C53.9088 29.1289 54.2413 29.4614 54.2413 29.8727V49.9495C54.2413 50.3608 53.9088 50.6933 53.4975 50.6933Z" fill="#616161"/>
<path d="M4.62875 50.6933H2.49375C2.0825 50.6933 1.75 50.3608 1.75 49.9495V29.8727C1.75 29.4614 2.0825 29.1289 2.49375 29.1289H4.62875C5.04 29.1289 5.3725 29.4614 5.3725 29.8727V49.9495C5.3725 50.3608 5.03562 50.6933 4.62875 50.6933Z" fill="#616161"/>
<path d="M11.0425 17.1814H5.68314C4.97002 17.1814 4.39252 16.6039 4.39252 15.8908V12.732C4.39252 12.0189 4.97002 11.4414 5.68314 11.4414H11.0425C11.7556 11.4414 12.3331 12.0189 12.3331 12.732V15.8908C12.3288 16.6039 11.7513 17.1814 11.0425 17.1814Z" fill="#90A4AE"/>
<path d="M7.1225 17.7277H5.3725V13.1777C5.3725 12.6965 5.76625 12.3027 6.2475 12.3027C6.72875 12.3027 7.1225 12.6965 7.1225 13.1777V17.7277Z" fill="#94D1E0"/>
<path d="M18.5325 15.6639H16.1218C15.6406 15.6639 15.2512 15.2745 15.2512 14.7932V12.3826C15.2512 11.9014 15.4831 11.6914 16.1218 11.512C16.7606 11.3326 17.9243 11.3107 18.5325 11.512C19.0312 11.6782 19.4031 11.9014 19.4031 12.3826V14.7932C19.4031 15.2745 19.0093 15.6639 18.5325 15.6639Z" fill="#546E7A"/>
<path d="M18.9612 17.7417H15.6844C14.6169 17.7417 13.7506 16.8755 13.7506 15.808V15.5236C13.7506 14.4561 14.6169 13.5898 15.6844 13.5898H18.9612C20.0287 13.5898 20.895 14.4561 20.895 15.5236V15.808C20.8994 16.8755 20.0331 17.7417 18.9612 17.7417Z" fill="#90A4AE"/>
<path d="M53.2569 14.9453H3.52188C2.54188 14.9453 1.75 15.7372 1.75 16.7172V26.2197H54.25V15.9384C54.25 15.3872 53.8038 14.9453 53.2569 14.9453Z" fill="#B0BEC5"/>
<path d="M31.6706 52.9823C39.5935 52.9823 46.0163 46.5595 46.0163 38.6366C46.0163 30.7138 39.5935 24.291 31.6706 24.291C23.7478 24.291 17.325 30.7138 17.325 38.6366C17.325 46.5595 23.7478 52.9823 31.6706 52.9823Z" fill="#616161"/>
<path d="M31.6707 51.0909C38.5497 51.0909 44.1263 45.5144 44.1263 38.6353C44.1263 31.7563 38.5497 26.1797 31.6707 26.1797C24.7916 26.1797 19.215 31.7563 19.215 38.6353C19.215 45.5144 24.7916 51.0909 31.6707 51.0909Z" fill="#E0E0E0"/>
<path d="M31.6706 47.5309C36.5828 47.5309 40.565 43.5488 40.565 38.6366C40.565 33.7243 36.5828 29.7422 31.6706 29.7422C26.7584 29.7422 22.7762 33.7243 22.7762 38.6366C22.7762 43.5488 26.7584 47.5309 31.6706 47.5309Z" fill="#2F7889"/>
<path d="M31.6706 50.0814C37.9915 50.0814 43.1157 44.9573 43.1157 38.6364C43.1157 32.3155 37.9915 27.1914 31.6706 27.1914C25.3497 27.1914 20.2256 32.3155 20.2256 38.6364C20.2256 44.9573 25.3497 50.0814 31.6706 50.0814Z" fill="black"/>
<path d="M31.6706 47.3596C36.4886 47.3596 40.3944 43.4539 40.3944 38.6359C40.3944 33.8179 36.4886 29.9121 31.6706 29.9121C26.8527 29.9121 22.9469 33.8179 22.9469 38.6359C22.9469 43.4539 26.8527 47.3596 31.6706 47.3596Z" fill="#2F7889"/>
<path d="M29.6056 31.3175C26.845 31.9431 25.1956 34.6293 25.1956 36.6112C25.1956 38.2168 26.2587 37.8143 26.6 37.2325C27.4794 35.7406 28.5425 34.4981 30.3756 33.9775C31.1106 33.7675 31.9681 33.3081 31.8806 32.4506C31.7581 31.23 30.5462 31.1031 29.6056 31.3175Z" fill="#94D1E0"/>
<path opacity="0.25" d="M31.6706 42.5297C33.8211 42.5297 35.5644 40.7864 35.5644 38.6359C35.5644 36.4855 33.8211 34.7422 31.6706 34.7422C29.5201 34.7422 27.7769 36.4855 27.7769 38.6359C27.7769 40.7864 29.5201 42.5297 31.6706 42.5297Z" fill="black"/>
<path d="M49.2144 24.1675H41.2738C40.81 24.1675 40.4338 23.7912 40.4338 23.3275V17.7931C40.4338 17.3294 40.81 16.9531 41.2738 16.9531H49.2144C49.6781 16.9531 50.0544 17.3294 50.0544 17.7931V23.3319C50.0544 23.7912 49.6825 24.1675 49.2144 24.1675Z" fill="#78909C"/>
<path d="M40.4338 23.1175V17.885C40.4338 17.3688 40.8494 16.9531 41.3657 16.9531H49.1488C49.5863 16.9531 49.7657 17.1937 49.7657 17.1937L40.7357 23.94C40.7357 23.94 40.4338 23.7562 40.4338 23.1175Z" fill="#757575"/>
<path d="M48.2956 18.2695H42.1925V22.8502H48.2956V18.2695Z" fill="#212121"/>
<path d="M53.3137 25.6027H51.5637V16.6777C51.5637 16.1965 51.9575 15.8027 52.4387 15.8027C52.92 15.8027 53.3137 16.1965 53.3137 16.6777V25.6027Z" fill="#B9E4EA"/>
<path d="M4.88251 25.6027H3.13251V16.6777C3.13251 16.1965 3.52626 15.8027 4.00751 15.8027C4.48876 15.8027 4.88251 16.1965 4.88251 16.6777V25.6027Z" fill="#B9E4EA"/>
<path d="M18.3269 20.4448C18.13 20.4098 18.0863 20.1473 18.2569 20.0511L23.94 17.1811C24.9944 16.5817 25.0863 16.2886 24.7407 15.3567L21.385 5.63546C21.315 5.42983 21.56 5.26358 21.7263 5.40358L29.1244 11.6686C30.5113 12.7886 30.9707 12.3205 31.3513 11.6598L35.4507 4.41046C35.56 4.23108 35.8357 4.29671 35.8488 4.51108L35.8794 11.7955C35.8488 13.1998 36.4482 12.9417 38.4038 12.4386L44.7432 10.6667C44.9531 10.6055 45.1063 10.8592 44.9575 11.0167L37.9838 18.2705C37.5332 18.848 37.5813 19.0317 37.7738 19.8323L39.1869 23.9405C39.2394 24.0936 39.1082 24.2511 38.9463 24.2205L34.2344 22.8511C33.53 22.7286 33.1844 22.7286 32.7382 23.4548L29.4088 28.8755C29.2994 29.0067 29.0063 29.1511 28.9144 28.8842L27.1469 22.5973C26.9238 21.8667 26.6175 21.8536 25.865 21.7136L18.3269 20.4448Z" fill="#FF8F00"/>
<path d="M22.7806 19.6176L28.3588 17.7407L24.1281 9.31445L30.8438 15.8026L33.9325 10.2507L33.5694 16.3888L39.9263 14.0045L35.035 18.712L36.9688 22.0326L32.5938 20.7026L29.7019 25.7951L28.805 20.2607L22.7806 19.6176Z" fill="#FFEE58"/>
</svg>
