<svg width="24" height="24" viewBox="0 0 24 24" fill="none" xmlns="http://www.w3.org/2000/svg">
<path fill-rule="evenodd" clip-rule="evenodd" d="M5.875 8C5.39175 8 5 7.55228 5 7C5 6.44772 5.39175 6 5.875 6H10C10 4.89543 10.8954 4 12 4C13.1046 4 14 4.89543 14 6H18.125C18.6082 6 19 6.44772 19 7C19 7.55228 18.6082 8 18.125 8H17.3095L16.5115 16.3792C16.3477 18.0994 16.2658 18.9595 15.6936 19.4797C15.1214 20 14.2575 20 12.5295 20H11.4705C9.74254 20 8.87857 20 8.3064 19.4797C7.73424 18.9595 7.65232 18.0994 7.4885 16.3792L6.69048 8H5.875ZM9.47918 16.1896L8.69922 8H15.3002L14.5202 16.1896C14.4383 17.0497 14.3973 17.4797 14.1113 17.7399C13.8252 18 13.3932 18 12.5292 18H11.4702C10.6062 18 10.1742 18 9.88813 17.7399C9.60205 17.4797 9.56109 17.0497 9.47918 16.1896Z" fill="#707F8D"/>
</svg>
