<svg width="16" height="16" viewBox="0 0 16 16" fill="none" xmlns="http://www.w3.org/2000/svg">
<path fill-rule="evenodd" clip-rule="evenodd" d="M16 8C16 12.4183 12.4183 16 8 16C3.58172 16 0 12.4183 0 8C0 3.58172 3.58172 0 8 0C12.4183 0 16 3.58172 16 8ZM9 11C9 11.5523 8.55229 12 8 12C7.44772 12 7 11.5523 7 11C7 10.4477 7.44772 10 8 10C8.55229 10 9 10.4477 9 11ZM9.35074 5.49256L9.0995 8.00496C9.04302 8.56983 8.56769 9 8 9C7.43231 9 6.95698 8.56983 6.9005 8.00496L6.64926 5.49256C6.56934 4.69343 7.19688 4 8 4C8.80312 4 9.43066 4.69343 9.35074 5.49256Z" fill="#DB7880"/>
</svg>
