<svg width="30" height="30" viewBox="0 0 30 30" fill="none" xmlns="http://www.w3.org/2000/svg">
<path d="M2.36713 5.47266C1.49292 6.14062 1.04292 8.00625 0.949166 10.6453C0.855416 13.2844 1.35229 14.7188 1.52573 15.1523C1.69917 15.5859 3.00229 16.2328 4.46948 17.3672C5.54526 18.1992 13.9921 24.0797 14.9929 24.5367C16.5843 25.2609 17.5968 23.7961 17.5968 23.7961C17.5968 23.7961 18.4406 24.2789 19.2562 23.7961C20.2523 23.2055 20.1351 22.4719 20.1351 22.4719C20.1351 22.4719 21.1617 22.7086 21.6843 22.2469C22.207 21.7852 22.439 20.6766 22.439 20.6766C22.439 20.6766 23.1304 20.9906 23.7164 20.468C24.3023 19.9453 24.7476 19.2375 24.1265 18.2719C23.5054 17.3063 20.9789 14.2641 20.3226 13.4109C19.6664 12.5578 17.9789 7.69219 16.3546 7.20703C14.7304 6.72187 13.1273 6.84609 11.4304 7.34766C9.73354 7.84922 8.14682 7.80234 6.26245 7.26797C4.37807 6.73359 2.36713 5.47266 2.36713 5.47266Z" fill="#FFCA28"/>
<path d="M28.9007 9.60851C28.5538 7.29991 28.0968 5.7296 27.757 5.34991C27.3679 4.91866 26.6999 5.77648 25.2866 6.27804C23.8734 6.7796 21.3281 6.96945 21.3281 6.96945C21.3281 6.96945 17.2335 6.84991 15.7007 7.36554C15.1241 7.55773 9.43587 9.95538 9.26477 10.9609C9.19212 11.3874 9.66555 12.3413 10.8421 12.4374C12.7523 12.5944 15.1406 10.9304 15.1406 10.9304C15.1687 10.8835 15.4523 10.8038 16.7577 10.8038C18.0632 10.8038 19.5796 11.6593 19.6757 11.8187C20.6507 13.4241 21.5765 14.5491 22.4695 15.6366C23.1234 16.4312 24.6609 18.5335 24.6609 18.5335C24.6609 18.5335 26.3882 16.4921 26.8288 16.021C27.2695 15.5499 28.9031 14.3569 28.9031 14.3569C28.9031 14.3569 29.264 12.0226 28.9007 9.60851Z" fill="#FFCA28"/>
<path d="M6.23188 20.1154C6.23188 20.1154 5.60844 20.3357 5.03891 19.5178C4.46938 18.6998 4.94516 18.1373 5.52641 17.6803C6.10766 17.2232 6.87641 17.0029 7.33344 17.3498C7.78813 17.6943 7.97797 18.292 7.97797 18.292C7.97797 18.292 8.92016 17.5232 9.7686 17.9943C10.617 18.4654 10.5631 19.3232 10.5631 19.3232C10.5631 19.3232 11.3858 18.824 12.2506 19.3232C13.1155 19.8224 12.6913 21.2615 12.6913 21.2615C12.6913 21.2615 13.6967 21.292 13.8842 22.2834C14.0717 23.2724 13.8373 24.3248 12.7053 24.5146C11.5756 24.7021 10.9147 23.6428 10.9147 23.6428C10.9147 23.6428 9.785 24.3248 8.95063 23.7623C8.11625 23.1998 8.21235 22.0185 8.21235 22.0185C8.21235 22.0185 7.19281 22.1873 6.6186 21.6529C6.04438 21.1185 6.23188 20.1154 6.23188 20.1154Z" fill="#FFCA28"/>
<path d="M14.1304 23.7328C14.4164 23.2031 14.4867 22.5937 14.2992 22.0921C14.1632 21.7265 13.8375 21.2671 13.0781 21.0445C13.0851 21.0304 13.0922 21.0187 13.0992 21.007L13.0781 20.9953C13.1789 20.6882 13.2023 20.3953 13.1554 20.0437C13.0804 19.4906 12.7617 19.0757 12.2578 18.8812C11.8312 18.7148 11.3156 18.7288 10.9031 18.8976C10.8586 18.4171 10.6289 18.0749 10.1859 17.8054C9.29996 17.2663 8.63903 17.6179 8.23356 17.8523C8.05309 17.3343 7.60543 17.0788 7.32184 16.964C6.98434 16.8281 6.15934 16.6523 5.17731 17.5288L5.67887 17.9882C6.35621 17.4117 6.86246 17.5054 7.07106 17.5898C7.61012 17.8054 7.59137 18.2062 7.58903 18.3913C7.58668 18.5742 7.55856 18.7687 7.1109 19.1835C6.55778 19.6968 6.16637 19.6992 6.16637 19.6992C5.77028 19.746 5.41637 19.446 5.25465 19.1484C5.1984 19.0429 5.03199 18.682 5.25231 18.4218C5.30387 18.3632 5.40934 18.1992 5.76793 17.9179L5.2734 17.4492C5.05778 17.6273 4.78824 17.9273 4.73668 17.9859C4.40621 18.3749 4.37809 18.9445 4.66168 19.4695C4.89606 19.9078 5.36949 20.3203 5.9484 20.3765C5.90621 20.939 6.10543 21.4593 6.52965 21.8695C6.98434 22.3101 7.54918 22.357 7.94293 22.3218C7.94762 22.7156 8.03434 23.2687 8.41871 23.6648C9.18278 24.4499 10.1367 24.2507 10.7554 23.9203C10.9781 24.3726 11.3789 24.696 11.8875 24.8156C12.0304 24.8484 12.1757 24.8648 12.3187 24.8648C12.8531 24.8648 13.5445 24.8648 14.2242 23.5359C14.0132 23.4046 13.8117 23.3015 13.6336 23.196C13.1156 24.2226 12.4289 24.2484 12.0398 24.157C11.6859 24.0726 11.4257 23.8335 11.3062 23.489C11.8711 22.8562 12.2695 22.357 12.7125 21.6515C13.214 21.757 13.5351 21.9843 13.664 22.3312C13.7765 22.6335 13.732 23.0226 13.5586 23.3695L14.1304 23.7328ZM8.19606 21.5812C8.18903 21.5835 7.46715 21.832 6.9984 21.3796C6.68668 21.0773 6.56481 20.7117 6.63746 20.2945C7.4859 19.6921 8.21949 18.7499 8.37184 18.546C8.42574 18.5179 9.14528 17.9484 9.83434 18.3796C10.1531 18.5788 10.282 19.0382 10.2164 19.3617C10.1507 19.6851 10.0007 20.0765 9.38199 20.7374C8.77731 21.382 8.19606 21.5812 8.19606 21.5812ZM12.3609 20.9788C12.2039 21.2882 11.7164 22.3148 10.7039 23.1492C10.589 23.2429 9.62106 23.9226 8.90387 23.1867C8.64606 22.9218 8.60621 22.4671 8.62028 22.1718C9.10074 21.7945 10.057 20.9507 10.7976 19.7437C11.0859 19.4179 11.6461 19.364 12.014 19.507C12.2859 19.6124 12.4453 19.821 12.4851 20.1304C12.525 20.4163 12.5179 20.6695 12.3609 20.9788Z" fill="#D69513"/>
<path d="M18.3632 24.3005C18.1382 24.3005 17.9179 24.2653 17.7116 24.1927C17.1819 24.0075 15.1311 22.4466 14.7796 21.9052C14.6788 21.7481 14.7233 21.5395 14.878 21.4388C15.035 21.338 15.2436 21.3825 15.3444 21.5372C15.5882 21.9122 17.5007 23.4028 17.9343 23.5552C18.3233 23.6911 18.8225 23.6208 19.2022 23.377C19.4436 23.22 19.7436 22.9247 19.7882 22.4067C19.8046 22.2216 19.9686 22.0833 20.1538 22.0997C20.3389 22.1161 20.4772 22.2802 20.4608 22.4653C20.4069 23.0817 20.0905 23.6067 19.5702 23.9442C19.2093 24.1786 18.7804 24.3005 18.3632 24.3005Z" fill="#D69513"/>
<path d="M20.8218 22.7709C20.3601 22.7709 19.8633 22.6255 19.2633 22.3185C18.525 21.9435 17.5523 20.9802 16.8422 20.2794C16.6992 20.1388 16.5703 20.0099 16.4601 19.9044C16.3265 19.7755 16.3218 19.5623 16.4508 19.4263C16.5797 19.2904 16.7929 19.288 16.9289 19.4169C17.0414 19.5248 17.1726 19.6537 17.3179 19.799C17.9578 20.4318 18.9258 21.388 19.5703 21.7162C20.3836 22.131 20.8008 22.1263 21.1054 22.0677C21.6633 21.9576 22.0101 21.4349 22.0078 20.699C22.0078 20.5115 22.1578 20.3615 22.3453 20.3615C22.5304 20.3615 22.6828 20.5115 22.6828 20.699C22.6851 21.7607 22.1156 22.5599 21.2343 22.7333C21.0984 22.7591 20.9601 22.7709 20.8218 22.7709Z" fill="#D69513"/>
<path d="M22.7601 21.1135C22.5796 21.1135 22.3968 21.083 22.221 21.015C21.2718 20.6447 20.0062 19.4775 18.3515 17.4455C18.2343 17.3002 18.2554 17.0869 18.4007 16.9697C18.546 16.8525 18.7593 16.8736 18.8765 17.0189C20.4327 18.9314 21.6397 20.0635 22.4671 20.3846C22.8819 20.5463 23.4983 20.3119 23.8687 19.8525C24.0421 19.6369 24.2905 19.208 23.9905 18.751C23.3272 17.7408 22.6569 16.9252 21.9468 16.0627C21.0374 14.9564 20.0976 13.8127 19.0968 12.1674C19.0007 12.008 19.0499 11.7994 19.2093 11.7033C19.3687 11.6072 19.5772 11.6564 19.6733 11.8158C20.6483 13.4213 21.5741 14.5463 22.4671 15.6338C23.189 16.5103 23.8687 17.34 24.553 18.3807C24.9397 18.9666 24.8788 19.6767 24.3913 20.2791C24.0163 20.7408 23.3905 21.1135 22.7601 21.1135Z" fill="#D69513"/>
<path d="M23.3483 13.7925C23.3342 13.7925 23.3225 13.7925 23.3084 13.7902C20.8288 13.5019 19.5842 12.5409 18.7616 11.9058C18.3561 11.5941 18.0374 11.3456 17.7327 11.3011C16.8702 11.1698 16.017 11.0761 15.0983 11.3433C15.0116 11.3691 14.7538 11.4909 14.4772 11.6222C13.6311 12.023 12.3538 12.63 11.4139 12.7284C10.6827 12.8058 10.0288 12.6206 9.57173 12.2105C9.20142 11.8777 8.99048 11.4183 8.99048 10.9495C8.99048 10.1269 10.0311 9.64172 10.7178 9.32297C11.0952 9.14718 11.6084 8.8589 12.1499 8.55422C13.0967 8.02218 14.1702 7.4175 14.9577 7.16906C16.2514 6.76125 19.6616 6.63937 20.7538 6.62765C23.203 6.60422 25.2163 5.9175 26.7467 5.13C26.81 5.09718 27.0889 4.95187 27.3327 5.01281C27.6725 5.09718 27.7569 5.35265 27.7569 5.35265C26.0858 6.34875 23.803 7.27687 20.7631 7.30734C19.4225 7.31906 16.2913 7.46203 15.1663 7.81593C14.4444 8.04328 13.4038 8.62922 12.485 9.14718C11.9319 9.4589 11.4092 9.75422 11.0061 9.93937C10.6053 10.1245 9.66782 10.5605 9.66782 10.9542C9.66782 11.2308 9.79907 11.5073 10.0241 11.7136C10.3358 11.9948 10.8069 12.1191 11.3436 12.0628C12.1686 11.9761 13.4319 11.3761 14.1889 11.0175C14.5709 10.8347 14.7772 10.7386 14.9108 10.7011C16.0475 10.3683 17.1233 10.53 17.8334 10.6378C18.3092 10.7105 18.71 11.0198 19.1741 11.3761C19.985 12.0019 21.0936 12.8573 23.3881 13.1245C23.5733 13.1456 23.7069 13.3144 23.6858 13.4995C23.6647 13.6659 23.5194 13.7925 23.3483 13.7925Z" fill="#D69513"/>
<path d="M24.5225 18.3367L24.178 17.8305C24.4405 17.9711 25.0381 17.8633 25.7952 16.7969C26.2756 16.1195 27.1733 14.7531 28.8795 14.043C28.8795 14.043 29.0084 14.6898 28.6241 14.9523C27.4663 15.7492 26.7374 16.6352 26.3459 17.1883C25.7038 18.0953 25.1131 18.6391 24.7756 18.9109C24.7756 18.9109 24.7334 18.6391 24.5225 18.3367Z" fill="#D69513"/>
<path d="M15.9889 25.0035C15.1475 25.0035 14.3342 24.5629 13.9241 24.3402C13.8561 24.3027 13.7975 24.2723 13.7483 24.2465L14.2475 23.1074C14.2475 23.1074 14.3694 23.7871 14.885 24.0543C15.7334 24.4973 16.4952 24.5605 17.1139 23.7402L17.653 24.148C17.1678 24.7926 16.5702 25.0035 15.9889 25.0035Z" fill="#D69513"/>
<path d="M4.84446 18.1777C4.07102 17.3621 3.1218 16.5887 2.07649 15.9137C2.02493 15.8809 1.74133 15.698 1.60305 15.452C1.38743 15.0699 1.43899 14.7441 1.43899 14.7441C2.92258 15.5691 4.28196 16.6027 5.3343 17.7137L4.84446 18.1777Z" fill="#D69513"/>
<path d="M9.27876 8.04975C6.49907 8.04975 3.93267 6.98569 2.08813 5.74819C2.08813 5.74819 2.18423 5.55366 2.36704 5.47163C2.62251 5.35678 2.81938 5.42007 2.84751 5.43647C4.56079 6.50053 6.83189 7.37241 9.27642 7.37241C9.2811 7.37241 9.28579 7.37241 9.29282 7.37241C9.9936 7.37241 10.9358 7.09116 11.4983 6.92475C11.6038 6.89428 11.6975 6.86616 11.7795 6.84272C13.1624 6.45132 14.6506 6.456 16.7553 6.85444L16.6288 7.51772C14.6342 7.14038 13.2374 7.13335 11.9624 7.49194C11.885 7.51303 11.7936 7.54116 11.6905 7.57163C11.0928 7.74975 10.092 8.04741 9.29517 8.04741C9.29048 8.04975 9.28345 8.04975 9.27876 8.04975Z" fill="#D69513"/>
<path d="M21.7194 14.7164C21.7194 14.7164 21.5319 14.2219 21.846 13.943C22.214 13.6148 22.6265 13.732 22.9124 13.7367C22.9124 13.7367 22.3569 13.5914 21.6491 13.3078C20.7702 12.9539 20.1655 12.5156 20.1655 12.5156C20.1655 12.5156 20.3226 12.8297 20.8101 13.568C21.2952 14.3062 21.7194 14.7164 21.7194 14.7164Z" fill="#D69513"/>
</svg>
