<svg width="30" height="30" viewBox="0 0 30 30" fill="none" xmlns="http://www.w3.org/2000/svg">
    <defs>
        <radialGradient id="paint0_radial_361_2737" cx="0" cy="0" r="1" gradientUnits="userSpaceOnUse" gradientTransform="translate(8.25439 11.9795) scale(9.91904 15.5777)">
            <stop offset="0.382353" stop-color="#FFCA28"/>
            <stop offset="0.75" stop-color="#FFB300"/>
        </radialGradient>
        <linearGradient id="paint1_linear_361_2737" x1="17.5168" y1="2.1098" x2="2.10714" y2="27.9121" gradientUnits="userSpaceOnUse">
            <stop stop-color="#64B5F6"/>
            <stop offset="1" stop-color="#2196F3"/>
        </linearGradient>
        <linearGradient id="paint2_linear_361_2737" x1="18.172" y1="1.46363" x2="0.775391" y2="29.5254" gradientUnits="userSpaceOnUse">
            <stop stop-color="#63B1EF"/>
            <stop offset="1" stop-color="#2393EC"/>
        </linearGradient>
        <radialGradient id="paint3_radial_361_2737" cx="0" cy="0" r="1" gradientUnits="userSpaceOnUse" gradientTransform="translate(14.8645 19.5251) rotate(0.28845) scale(5.52982 11.1408)">
            <stop offset="0.322917" stop-color="#FFCA28"/>
            <stop offset="1" stop-color="#FFB300"/>
        </radialGradient>
    </defs>
<path fill-rule="evenodd" clip-rule="evenodd" d="M10.912 9.63672C11.7159 9.31249 12.6207 9.35181 13.3934 9.74456L24.8242 15.5544C25.1547 15.7224 25.5254 15.7952 25.8949 15.7647L27.969 15.5935C28.5517 15.5454 29.0512 16.0054 29.0512 16.5901V25.4468C29.0512 25.9876 28.5258 26.3725 28.0102 26.2096L27.5071 26.0507C26.8125 25.851 27.0555 25.9018 26.0796 25.7605C25.1007 25.6187 24.1745 25.6832 23.3219 26.1457C22.1314 26.7915 21.3265 27.1078 20.4699 27.1349C19.6298 27.1614 18.7725 26.9059 17.5034 26.5216C16.8431 26.3216 16.2949 26.0996 15.8057 25.8991C15.7851 25.8906 15.7646 25.8822 15.7443 25.8738C15.2768 25.6821 14.8722 25.5161 14.4569 25.3978C13.6179 25.159 12.717 25.1101 11.2527 25.5684C8.86938 26.3142 7.38522 25.3496 6.80753 24.5585C6.39683 24.5833 5.88161 24.483 5.4498 24.1098C5.00201 23.7228 4.69648 23.0887 4.65166 22.1381C4.3705 22.2546 4.06369 22.3717 3.87031 22.4455L3.86846 22.4462C3.62803 22.5379 3.32537 22.5528 3.03137 22.5129C2.73148 22.4723 2.40724 22.3704 2.11617 22.1956C1.82397 22.02 1.55627 21.7651 1.39141 21.417C1.22498 21.0655 1.17602 20.6456 1.28032 20.1661C1.39359 19.6454 1.51371 19.2652 1.64308 18.8557C1.69952 18.677 1.75774 18.4927 1.81791 18.2888C2.01917 17.6066 2.26191 16.6476 2.57807 14.8266L2.57981 14.8166L2.76907 13.8878C2.9031 13.2301 3.35816 12.6834 3.9807 12.4323L10.912 9.63672Z" fill="url(#paint0_radial_361_2737)"/>
<path fill-rule="evenodd" clip-rule="evenodd" d="M10.912 9.63672C11.7159 9.31249 12.6207 9.35181 13.3934 9.74456L24.8242 15.5544C25.1547 15.7224 25.5254 15.7952 25.8949 15.7647L27.969 15.5935C28.5517 15.5454 29.0512 16.0054 29.0512 16.5901V25.4468C29.0512 25.9876 28.5258 26.3725 28.0102 26.2096L27.5071 26.0507C26.8125 25.851 27.0555 25.9018 26.0796 25.7605C25.1007 25.6187 24.1745 25.6832 23.3219 26.1457C22.1314 26.7915 21.3265 27.1078 20.4699 27.1349C19.6298 27.1614 18.7725 26.9059 17.5034 26.5216C16.8431 26.3216 16.2949 26.0996 15.8057 25.8991C15.7851 25.8906 15.7646 25.8822 15.7443 25.8738C15.2768 25.6821 14.8722 25.5161 14.4569 25.3978C13.6179 25.159 12.717 25.1101 11.2527 25.5684C8.86938 26.3142 7.38522 25.3496 6.80753 24.5585C6.39683 24.5833 5.88161 24.483 5.4498 24.1098C5.00201 23.7228 4.69648 23.0887 4.65166 22.1381C4.3705 22.2546 4.06369 22.3717 3.87031 22.4455L3.86846 22.4462C3.62803 22.5379 3.32537 22.5528 3.03137 22.5129C2.73148 22.4723 2.40724 22.3704 2.11617 22.1956C1.82397 22.02 1.55627 21.7651 1.39141 21.417C1.22498 21.0655 1.17602 20.6456 1.28032 20.1661C1.39359 19.6454 1.51371 19.2652 1.64308 18.8557C1.69952 18.677 1.75774 18.4927 1.81791 18.2888C2.01917 17.6066 2.26191 16.6476 2.57807 14.8266L2.57981 14.8166L2.76907 13.8878C2.9031 13.2301 3.35816 12.6834 3.9807 12.4323L10.912 9.63672ZM27.9332 25.4839C28.1346 25.5543 28.3512 25.4084 28.3512 25.1951V16.8073C28.3512 16.5149 28.1015 16.2849 27.8101 16.309L26.0373 16.4553C25.483 16.5011 24.927 16.3918 24.4312 16.1399L13.36 10.5128C12.5873 10.1201 11.6825 10.0807 10.8786 10.405L4.5916 12.9407C3.96901 13.1918 3.51393 13.7385 3.37994 14.3963L3.26688 14.9514C2.94762 16.7894 2.69955 17.7742 2.4893 18.4869C2.42141 18.7169 2.3594 18.9131 2.30137 19.0966C2.17678 19.4906 2.07061 19.8263 1.96433 20.3149C1.88892 20.6616 1.93134 20.9216 2.02405 21.1174C2.11833 21.3164 2.27752 21.4759 2.47664 21.5955C2.6769 21.7158 2.90842 21.7899 3.12539 21.8193C3.34826 21.8495 3.52357 21.8286 3.61889 21.7922C3.97745 21.6554 4.59433 21.4183 4.83687 21.2865L5.3861 20.9882L5.35344 21.6124C5.29382 22.7518 5.59593 23.3109 5.90753 23.5802C6.22808 23.8573 6.63623 23.8959 6.91423 23.8412L7.16295 23.7922L7.28701 24.0133C7.58058 24.5364 8.76729 25.6127 11.0436 24.9003C12.6222 24.4063 13.6632 24.444 14.6486 24.7246C15.1028 24.8539 15.541 25.0338 15.9969 25.2209C16.0216 25.231 16.0464 25.2412 16.0713 25.2514C16.5585 25.4512 17.0803 25.6621 17.7063 25.8516C19.01 26.2464 19.7466 26.4574 20.4478 26.4352C21.1324 26.4136 21.8162 26.1661 22.9881 25.5304C24.0253 24.9677 25.2326 24.9247 26.289 25.0777C26.8889 25.1646 27.4539 25.3163 27.9332 25.4839Z" fill="#EDA600"/>
<path d="M13.0645 13.21C12.7433 14.1738 13.9586 14.4371 14.6065 14.4482L11.373 15.7896L13.0645 13.21Z" fill="#EDA600"/>
<path fill-rule="evenodd" clip-rule="evenodd" d="M15.5105 1.44358C15.788 0.981149 16.3822 0.822072 16.8536 1.084L18.6908 2.10477C19.1838 2.37869 19.3529 3.00587 19.0644 3.49047L5.94832 25.5212C5.81176 25.7505 5.63065 25.9503 5.41568 26.1086L1.4296 29.0436C1.20518 29.2089 0.896359 29.0055 0.959524 28.734L2.04496 24.0696C2.09218 23.8667 2.17081 23.6724 2.27801 23.4938L15.5105 1.44358Z" fill="url(#paint1_linear_361_2737)"/>
<path fill-rule="evenodd" clip-rule="evenodd" d="M15.5105 1.44358C15.788 0.981149 16.3822 0.822072 16.8536 1.084L18.6908 2.10477C19.1838 2.37869 19.3529 3.00587 19.0644 3.49047L5.94832 25.5212C5.81176 25.7505 5.63065 25.9503 5.41568 26.1086L1.4296 29.0436C1.20518 29.2089 0.896359 29.0055 0.959524 28.734L2.04496 24.0696C2.09218 23.8667 2.17081 23.6724 2.27801 23.4938L15.5105 1.44358ZM16.5982 1.74287C16.4096 1.6381 16.1719 1.70173 16.0609 1.8867L2.93485 23.7596C2.82765 23.9382 2.74902 24.1325 2.7018 24.3354L1.9482 27.5739C1.92714 27.6644 2.03008 27.7322 2.10489 27.6771L4.88663 25.6288C5.1016 25.4705 5.28271 25.2708 5.41927 25.0414L18.4102 3.22091C18.5256 3.02707 18.458 2.7762 18.2608 2.66663L16.5982 1.74287Z" fill="url(#paint2_linear_361_2737)"/>
<path d="M11.8294 15.7855C13.6615 14.4503 15.6513 14.6681 17.1248 14.9842C17.9495 15.1259 20.1736 15.8609 22.4726 17.6672C25.3463 19.9251 25.962 22.1419 24.0942 23.3941C22.5998 24.3957 21.1644 24.8651 20.2767 24.9291C18.1204 25.2696 15.8667 23.1457 14.4238 22.1729C13.2694 21.3946 11.781 21.9243 11.1811 22.2864C9.93804 23.1078 7.07902 24.4849 5.5874 23.4213C3.72288 22.0918 4.92257 21.3946 5.26305 20.9893C5.60353 20.584 9.31617 17.6172 11.8294 15.7855Z" fill="url(#paint3_radial_361_2737)"/>
<path fill-rule="evenodd" clip-rule="evenodd" d="M11.6231 15.5021C13.5813 14.075 15.701 14.3202 17.1981 14.6413L17.5344 14.7135L17.4681 15.051C16.561 19.672 19.1098 23.4249 20.509 24.6667L21.0632 25.1587L20.3312 25.2742C19.1267 25.4644 17.9334 24.9635 16.9021 24.3427C16.3809 24.029 15.8859 23.675 15.4359 23.3428C15.3179 23.2558 15.2038 23.1707 15.0932 23.0884C14.7765 22.8525 14.4893 22.6386 14.228 22.4625C13.7438 22.1361 13.178 22.0753 12.6416 22.1482C12.1066 22.2209 11.6326 22.4232 11.3677 22.5819C10.7245 23.0061 9.67101 23.5705 8.57709 23.8956C7.50293 24.2148 6.27117 24.3382 5.38412 23.7057C4.89643 23.3579 4.57619 23.0292 4.39657 22.7074C4.21006 22.3734 4.18002 22.0541 4.26121 21.7638C4.338 21.4893 4.50541 21.2737 4.64982 21.1162C4.71873 21.0411 4.78895 20.9723 4.84709 20.9155C4.85071 20.9119 4.8543 20.9084 4.85783 20.9049C4.92244 20.8417 4.96544 20.7987 4.99497 20.7636C5.05672 20.6901 5.17159 20.5828 5.30734 20.4622C5.45005 20.3354 5.6358 20.1766 5.85472 19.9936C6.29287 19.6274 6.86981 19.1594 7.51357 18.6477C8.80086 17.6244 10.3614 16.4216 11.6231 15.5021ZM16.7196 15.2586C15.3243 14.9943 13.614 14.9173 12.0354 16.0678C10.784 16.9798 9.23159 18.1763 7.94915 19.1957C7.30804 19.7053 6.7359 20.1694 6.30364 20.5307C6.08734 20.7115 5.90755 20.8653 5.77224 20.9855C5.62996 21.1119 5.55433 21.186 5.53097 21.2138C5.47547 21.2799 5.40663 21.3473 5.34782 21.4049L5.33996 21.4125C5.27934 21.4719 5.22149 21.5285 5.1658 21.5893C5.04778 21.718 4.96796 21.8358 4.93533 21.9524C4.9071 22.0533 4.90546 22.1829 5.00776 22.3662C5.11695 22.5618 5.34595 22.8187 5.79052 23.1357C6.3951 23.5668 7.33866 23.5334 8.37768 23.2246C9.39337 22.9228 10.3876 22.3906 10.9881 21.9938L10.994 21.9898L11.0002 21.9861C11.3363 21.7832 11.9034 21.5421 12.5473 21.4546C13.1936 21.3667 13.9491 21.4302 14.6193 21.8821C14.8955 22.0682 15.202 22.2966 15.5232 22.5358C15.6312 22.6162 15.7409 22.6979 15.8516 22.7796C16.2973 23.1086 16.771 23.4467 17.2632 23.743C17.995 24.1836 18.7356 24.5115 19.4548 24.5945C17.9652 22.9154 16.0336 19.4494 16.7196 15.2586Z" fill="#EDA600"/>
</svg>
