<svg width="30" height="30" viewBox="0 0 30 30" fill="none" xmlns="http://www.w3.org/2000/svg">
    <defs>
        <radialGradient id="paint0_radial_1053_1490" cx="0" cy="0" r="1" gradientUnits="userSpaceOnUse" gradientTransform="translate(14.112 19.1047) rotate(14.0032) scale(8.07107 11.2506)">
            <stop offset="0.2489" stop-color="#FFB300"/>
            <stop offset="0.6833" stop-color="#FFCA28"/>
            <stop offset="1" stop-color="#FFB300"/>
        </radialGradient>
        <radialGradient id="paint1_radial_1053_1490" cx="0" cy="0" r="1" gradientUnits="userSpaceOnUse" gradientTransform="translate(17.7925 4.6982) rotate(90) scale(16.7541 17.6236)">
            <stop stop-color="#FFCA28"/>
            <stop offset="1" stop-color="#FFB300"/>
        </radialGradient>
        <radialGradient id="paint2_radial_1053_1490" cx="0" cy="0" r="1" gradientUnits="userSpaceOnUse" gradientTransform="translate(11.6652 12.128) rotate(84.0018) scale(5.01914 3.34539)">
            <stop offset="0.5993" stop-color="#FFCA28"/>
            <stop offset="1" stop-color="#FFB300"/>
        </radialGradient>
        <radialGradient id="paint3_radial_1053_1490" cx="0" cy="0" r="1" gradientUnits="userSpaceOnUse" gradientTransform="translate(7.62101 14.0988) rotate(78.2286) scale(4.07599 2.88386)">
            <stop offset="0.5993" stop-color="#FFCA28"/>
            <stop offset="1" stop-color="#FFB300"/>
        </radialGradient>
        <radialGradient id="paint4_radial_1053_1490" cx="0" cy="0" r="1" gradientUnits="userSpaceOnUse" gradientTransform="translate(15.434 18.9799) scale(8.25348 9.01596)">
            <stop stop-color="#FFCA28"/>
            <stop offset="1" stop-color="#FFB300"/>
        </radialGradient>
    </defs>
<path d="M14.3646 28.7652C8.68574 28.7652 5.9248 25.7512 5.9248 19.552V14.3301C5.9248 14.152 5.93652 14.0371 5.95059 13.9668C6.11465 14.0699 6.40762 14.3324 6.63262 14.534C7.4084 15.2277 8.47012 16.1793 9.6959 16.1793H9.72168C9.76387 16.177 14.0553 15.8559 17.5521 15.8559C21.1146 15.8559 21.7357 16.1863 21.8412 16.2871C22.8748 17.2738 23.4584 17.9348 23.4584 20.0113C23.4584 24.2418 21.0701 28.7652 14.3646 28.7652Z" fill="url(#paint0_radial_1053_1490)"/>
<path d="M6.27637 14.6883C6.31855 14.7258 6.3584 14.7609 6.3959 14.7961C7.21387 15.5297 8.33184 16.5328 9.69355 16.5328C9.7123 16.5328 9.72871 16.5328 9.74746 16.5305C9.78965 16.5281 14.067 16.207 17.5521 16.207C20.8568 16.207 21.5201 16.5 21.6139 16.5539C22.5959 17.4937 23.1068 18.082 23.1068 20.0086C23.1068 22.275 22.4037 24.3258 21.1264 25.7812C19.5936 27.5273 17.3201 28.4133 14.3646 28.4133C11.374 28.4133 9.27871 27.5836 7.95684 25.8773C6.84121 24.4359 6.27637 22.3102 6.27637 19.5539V14.6883ZM5.85918 13.5703C5.67402 13.5703 5.57324 13.7812 5.57324 14.3297V19.5516C5.57324 24.8109 7.51621 29.1164 14.3646 29.1164C21.2131 29.1164 23.81 24.4969 23.81 20.0086C23.81 17.8523 23.1865 17.0859 22.085 16.0312C21.6631 15.6281 19.7529 15.5039 17.5521 15.5039C13.999 15.5039 9.69355 15.8297 9.69355 15.8297C7.95684 15.8273 6.46387 13.5703 5.85918 13.5703Z" fill="#EDA600"/>
<path d="M20.3907 18.4703C20.1563 18.4703 20.161 18.4633 20.0602 18.4469C19.2985 18.3297 18.661 17.7719 18.4571 17.0266C18.4196 16.8883 18.2954 16.7875 18.1548 16.7711C18.1407 16.7687 18.1219 16.7688 18.1055 16.7688C17.9813 16.7688 17.8618 16.8344 17.7985 16.9445C17.5243 17.4227 17.079 17.7531 16.5469 17.8773C16.4016 17.9102 16.2516 17.9289 16.104 17.9289C15.1923 17.9289 14.4094 17.3078 14.2032 16.4172L11.2384 3.62969C10.9946 2.57969 11.6509 1.52969 12.6985 1.28594C12.8438 1.25312 12.9938 1.23438 13.1415 1.23438C14.0532 1.23438 14.836 1.85547 15.0423 2.74609L17.9391 14.2328C17.979 14.3898 18.1219 14.5305 18.2813 14.5305H18.2977C18.4641 14.5305 18.6024 14.3687 18.6305 14.2023L20.3298 3.67656C20.4751 2.72969 21.3048 2.01016 22.2587 2.01016C22.3571 2.01016 22.4602 2.01484 22.5587 2.02891C23.6227 2.19297 24.3563 3.18906 24.1923 4.25312L22.2915 16.8133C22.1415 17.7578 21.3282 18.4703 20.3907 18.4703Z" fill="url(#paint1_radial_1053_1490)"/>
<path d="M13.1441 1.58594C13.8918 1.58594 14.5316 2.09688 14.7027 2.82578C14.7027 2.83047 14.7051 2.83516 14.7051 2.83984L17.5996 14.2867C17.6793 14.6008 17.9605 14.8164 18.2816 14.8164H18.3121C18.6449 14.8023 18.9215 14.5562 18.9754 14.2258L20.6769 3.70937C20.7965 2.93594 21.4762 2.35 22.2566 2.35C22.3387 2.35 22.4207 2.35703 22.5027 2.36875C23.3746 2.50234 23.9769 3.32266 23.841 4.19453L21.9098 16.7547C21.7902 17.5281 21.1105 18.1141 20.3301 18.1141C20.248 18.1141 20.166 18.107 20.084 18.0953C19.4582 17.9992 18.9473 17.5422 18.7832 16.9305C18.7082 16.6562 18.4762 16.4523 18.1949 16.4172C18.1644 16.4125 18.134 16.4125 18.1058 16.4125C17.8574 16.4125 17.623 16.5461 17.4965 16.7664C17.2715 17.1578 16.9082 17.4297 16.4723 17.5305C16.3527 17.5586 16.2308 17.5727 16.109 17.5727C15.3613 17.5727 14.7215 17.0617 14.5504 16.3328L11.5808 3.55C11.3816 2.68984 11.9183 1.82734 12.7785 1.62812C12.9004 1.6 13.0223 1.58594 13.1441 1.58594ZM13.1441 0.882812C12.9707 0.882812 12.7973 0.901563 12.6215 0.94375C11.3816 1.23203 10.6105 2.46953 10.8965 3.70937L13.8613 16.4945C14.1074 17.5586 15.0566 18.2781 16.1043 18.2781C16.2777 18.2781 16.4512 18.2594 16.6269 18.2172C17.2762 18.0672 17.7965 17.6547 18.1035 17.118C18.3355 17.9711 19.048 18.6508 19.9762 18.7938C20.0957 18.8125 20.2129 18.8219 20.3301 18.8219C21.448 18.8219 22.4301 18.0063 22.6058 16.8672L24.5371 4.30703C24.7316 3.04844 23.8668 1.87187 22.6105 1.67969C22.491 1.66094 22.3738 1.65156 22.2566 1.65156C21.1387 1.65156 20.1566 2.46719 19.9808 3.60625L18.2816 14.1156L15.3871 2.66875C15.1387 1.60234 14.1918 0.882812 13.1441 0.882812Z" fill="#EDA600"/>
<path d="M12.1195 18.5531C11.0741 18.5531 10.2187 17.768 10.1249 16.7273L9.7804 12.8742C9.73352 12.3398 9.89524 11.8195 10.2398 11.4094C10.5843 10.9992 11.0671 10.7461 11.5991 10.6969C11.6601 10.6922 11.721 10.6875 11.782 10.6875C12.8249 10.6875 13.6827 11.4727 13.7765 12.5133L14.121 16.3664C14.1679 16.9008 14.0062 17.4211 13.6616 17.8313C13.3171 18.2414 12.8343 18.4945 12.3023 18.5438C12.239 18.5508 12.1781 18.5531 12.1195 18.5531Z" fill="url(#paint2_radial_1053_1490)"/>
<path d="M11.7798 11.0391C12.6259 11.0391 13.3478 11.7 13.4251 12.5461L13.7697 16.3992C13.8095 16.8398 13.6759 17.2688 13.3923 17.6063C13.1087 17.9461 12.7103 18.1547 12.2697 18.1922C12.2204 18.1969 12.1689 18.1992 12.1197 18.1992C11.2595 18.1992 10.5517 17.5523 10.4743 16.6922L10.1298 12.8391C10.09 12.3984 10.2236 11.9695 10.5072 11.632C10.7908 11.2922 11.1892 11.0836 11.6298 11.0461C11.679 11.0414 11.7283 11.0391 11.7798 11.0391ZM11.7775 10.3359C11.7072 10.3359 11.6368 10.3383 11.5642 10.3453C10.2681 10.4625 9.3095 11.6063 9.42669 12.9023L9.77356 16.7578C9.88372 17.9836 10.9126 18.9047 12.1197 18.9047C12.19 18.9047 12.2603 18.9023 12.3329 18.8953C13.629 18.7781 14.5876 17.6344 14.4704 16.3383L14.1259 12.4852C14.0134 11.257 12.9845 10.3359 11.7775 10.3359Z" fill="#EDA600"/>
<path d="M8.31833 19.1996C7.38318 19.1996 6.56521 18.534 6.37302 17.6199L5.83161 15.0465C5.72146 14.5262 5.82224 13.9941 6.11286 13.5488C6.40349 13.1035 6.8488 12.7988 7.36911 12.6887C7.50505 12.6605 7.64333 12.6465 7.78161 12.6465C8.71677 12.6465 9.53474 13.3121 9.72693 14.2262L10.2683 16.7996C10.3785 17.3199 10.2777 17.852 9.98708 18.2973C9.69646 18.7426 9.25114 19.0473 8.73083 19.1574C8.59489 19.1855 8.45427 19.1996 8.31833 19.1996Z" fill="url(#paint3_radial_1053_1490)"/>
<path d="M7.78099 12.998C8.54974 12.998 9.2224 13.5465 9.38178 14.2988L9.92318 16.8723C10.1083 17.7559 9.54115 18.6277 8.65756 18.8129C8.54506 18.8363 8.43021 18.848 8.31771 18.848C7.54896 18.848 6.87631 18.2996 6.71693 17.5473L6.17553 14.9738C5.99037 14.0902 6.55756 13.2184 7.44115 13.0332C7.55365 13.0098 7.66615 12.998 7.78099 12.998ZM7.78099 12.2949C7.62162 12.2949 7.4599 12.3113 7.29584 12.3465C6.03021 12.6137 5.21928 13.8535 5.48646 15.1191L6.02787 17.6926C6.2599 18.7965 7.23256 19.5512 8.31771 19.5512C8.47709 19.5512 8.63881 19.5348 8.80287 19.4996C10.0685 19.2324 10.8794 17.9926 10.6122 16.727L10.0708 14.1535C9.83646 13.052 8.86381 12.2949 7.78099 12.2949Z" fill="#EDA600"/>
<path d="M20.5989 21.07C19.7293 20.8145 18.7731 20.7231 17.934 21.1309C17.0668 21.5528 16.6286 22.4012 16.2793 23.2543C16.1082 23.6739 16.7879 23.8543 16.9567 23.4418C17.245 22.7387 17.6129 22.0239 18.3536 21.7192C19.0215 21.4426 19.7387 21.5504 20.4114 21.7496C20.8473 21.8762 21.0325 21.1989 20.5989 21.07Z" fill="#EDA600"/>
<path d="M21.8856 24.2645C21.1895 24.2527 20.259 23.3223 19.6215 22.0004C19.0778 20.8707 18.0536 20.4301 15.9629 20.4301C15.377 20.4301 14.7161 20.4652 13.9356 20.5355C13.8793 20.5402 13.8207 20.5426 13.7645 20.5426C12.8692 20.5426 11.9176 19.9238 11.6012 19.134C11.4043 18.6441 11.3879 17.8801 11.7372 17.3645C11.9762 17.0129 12.3512 16.8324 12.8504 16.8324C13.6332 16.8324 18.0254 16.3473 18.6231 16.2793C20.2286 16.6613 24.227 17.9762 24.3934 19.7012C24.5715 21.5738 24.3348 22.884 23.6879 23.5965C23.2825 24.0441 22.7153 24.2598 21.9559 24.2598L21.8856 24.2645Z" fill="url(#paint4_radial_1053_1490)"/>
<path d="M18.6001 16.6383C18.9634 16.7297 20.1446 17.0438 21.3329 17.55C22.9899 18.2578 23.979 19.0547 24.0446 19.7367C24.2134 21.5063 24.0071 22.725 23.4282 23.3625C23.093 23.7328 22.6102 23.9109 21.9563 23.9109H21.893C21.4173 23.9016 20.5571 23.1281 19.9407 21.8461C19.336 20.5898 18.1852 20.0789 15.9657 20.0789C15.3704 20.0789 14.6954 20.1141 13.9055 20.1867C13.861 20.1914 13.8141 20.1938 13.7649 20.1938C13.0032 20.1938 12.1946 19.6711 11.9274 19.0055C11.7704 18.6117 11.7516 17.9742 12.0282 17.5641C12.1993 17.3109 12.4688 17.1867 12.8509 17.1867C13.6337 17.1867 17.7094 16.7391 18.6001 16.6383ZM18.6446 15.9258C18.6446 15.9258 13.6641 16.4836 12.8509 16.4836C11.1493 16.4836 10.868 18.2555 11.2759 19.268C11.6579 20.2172 12.743 20.8969 13.7649 20.8969C13.8329 20.8969 13.9009 20.8945 13.9688 20.8875C14.7446 20.8172 15.4032 20.782 15.9634 20.782C18.2016 20.782 18.9024 21.3164 19.3032 22.1531C19.9969 23.5969 21.0282 24.6023 21.8766 24.6164H21.9516C24.7759 24.6164 24.9423 21.7805 24.7407 19.6711C24.5157 17.2875 18.6446 15.9258 18.6446 15.9258Z" fill="#EDA600"/>
</svg>
