<svg width="30" height="30" viewBox="0 0 30 30" fill="none" xmlns="http://www.w3.org/2000/svg">
<path d="M13.9548 25.1801C13.0291 24.4371 4.43219 16.077 4.3361 15.9855C3.95641 15.6059 3.71735 15.2121 3.65172 14.8512C3.58375 14.4762 3.6986 14.148 4.00328 13.8434C4.28688 13.5598 4.63375 13.4098 5.00641 13.4098C5.4611 13.4098 5.9275 13.6254 6.31656 14.0168L10.2142 17.7621C10.2822 17.8277 10.3713 17.8605 10.458 17.8605C10.5494 17.8605 10.6384 17.8254 10.7064 17.7574C10.8423 17.6215 10.8423 17.4012 10.7088 17.2652L4.4861 10.8387C3.86266 10.2152 3.56969 9.26133 4.31031 8.5207C4.59391 8.23711 4.94078 8.08711 5.31344 8.08711C5.76813 8.08711 6.23453 8.30273 6.6236 8.69414L12.9892 14.9004C13.0572 14.966 13.1463 15.0012 13.2353 15.0012C13.3244 15.0012 13.4158 14.966 13.4838 14.898C13.6197 14.7621 13.622 14.5418 13.4861 14.4035L5.84078 6.56602C5.48688 6.21211 5.2736 5.78789 5.2361 5.37539C5.20094 4.95586 5.3486 4.5668 5.665 4.25039C5.9486 3.9668 6.29547 3.8168 6.66813 3.8168C7.12281 3.8168 7.58922 4.03242 7.97828 4.42148L15.7759 12.0246C15.8439 12.0902 15.933 12.1254 16.022 12.1254C16.1111 12.1254 16.2025 12.0902 16.2705 12.0223C16.4064 11.8863 16.4088 11.666 16.2728 11.5277L10.6103 5.7082C10.2541 5.35195 10.0408 4.93008 10.0056 4.51758C9.97047 4.09805 10.1181 3.70898 10.4345 3.39258C10.7181 3.10898 11.065 2.95898 11.4377 2.95898C11.8923 2.95898 12.3588 3.17461 12.7478 3.56602C14.8244 5.60508 20.2455 10.9371 20.4283 11.134C21.1244 11.6145 21.265 10.8879 21.3002 10.4168C21.34 9.86836 20.7119 7.95352 21.0775 6.23086C21.6916 3.94102 23.4611 4.31602 23.5009 4.33477C24.4713 4.78945 24.2861 5.46914 23.9416 6.83555L23.9064 7.10508C23.5455 8.89102 26.0252 14.1832 26.208 14.5793C27.1806 16.7074 28.3009 21.0223 24.5908 24.7324C20.5244 28.7988 15.49 26.7152 13.9548 25.1801Z" fill="url(#paint0_radial_841_3850)"/>
<path d="M19.1708 27.4629C16.677 27.4629 14.556 26.2699 13.7192 25.4426C12.9669 24.8285 8.21845 20.2441 4.35126 16.4918C4.19423 16.3395 4.10283 16.2527 4.09345 16.241C3.65517 15.8027 3.3833 15.3457 3.30595 14.9145C3.21689 14.4246 3.36923 13.9816 3.75361 13.5949C4.10517 13.2434 4.53642 13.0582 5.00517 13.0582C5.55595 13.0582 6.10908 13.3113 6.56377 13.7684L10.4567 17.509L4.23173 11.0824C3.51455 10.3652 3.15361 9.17695 4.06064 8.27227C4.4122 7.9207 4.84345 7.73555 5.3122 7.73555C5.86298 7.73555 6.41611 7.98867 6.8708 8.4457L13.2317 14.6473L5.58877 6.81211C5.18095 6.4043 4.93017 5.90508 4.88564 5.4082C4.84111 4.87852 5.02392 4.39336 5.41533 4.00195C5.76689 3.65039 6.19814 3.46523 6.66689 3.46523C7.21533 3.46523 7.76845 3.71602 8.22548 4.17305L16.0208 11.7738L10.3583 5.9543C9.94814 5.54414 9.69736 5.04492 9.65517 4.54805C9.61064 4.0207 9.79345 3.53555 10.1849 3.14414C10.5364 2.79258 10.9677 2.60742 11.4364 2.60742C11.9872 2.60742 12.5403 2.86055 12.995 3.31758L14.6849 4.97461C17.6966 7.92773 20.2138 10.4004 20.4833 10.677C20.6145 10.7824 20.7856 10.8223 20.8583 10.7871C20.9052 10.7637 20.9567 10.6559 20.9474 10.4285C20.9333 10.0301 20.877 9.53555 20.8185 9.01289C20.7013 7.96289 20.5794 6.87539 20.7317 6.1582C21.0645 4.91367 21.7185 4.38633 22.206 4.15898C22.8763 3.84961 23.5255 3.95742 23.6497 4.01602C24.8685 4.58789 24.627 5.54414 24.2942 6.8707L24.2872 6.90352L24.2497 7.17773C24.006 8.37773 25.2575 11.6941 26.5091 14.3965L26.5278 14.434C27.3645 16.2621 28.8716 20.952 24.8403 24.9832C22.9864 26.8324 20.9802 27.4629 19.1708 27.4629ZM5.00517 13.7613C4.72861 13.7613 4.46611 13.8762 4.25048 14.0918C4.02783 14.3145 3.95048 14.5301 3.99736 14.7879C4.04892 15.0715 4.25751 15.409 4.5833 15.7371C4.58564 15.7395 4.67939 15.8309 4.84111 15.9855C10.3302 21.3129 13.6442 24.4793 14.1739 24.9059L14.202 24.9316C15.4958 26.2254 20.3028 28.5223 24.3411 24.484C28.0606 20.7645 26.6614 16.4215 25.8856 14.7246L25.8692 14.6895C25.063 12.9504 23.2302 8.73164 23.556 7.04883L23.6099 6.69727C23.9708 5.26289 23.9919 4.96289 23.3802 4.66758C23.1997 4.63477 21.906 4.47773 21.4114 6.32227C21.2872 6.91055 21.4067 7.98633 21.5122 8.93555C21.5731 9.47227 21.6294 9.98086 21.6435 10.4051C21.6669 11.073 21.3505 11.3285 21.1583 11.4223C20.7669 11.6121 20.3005 11.4504 20.0099 11.2066L19.9794 11.1785C19.8364 11.0238 16.4356 7.68867 14.1856 5.48086L12.4935 3.81914C11.9169 3.24023 11.1739 3.14414 10.6747 3.64336C10.431 3.88711 10.3208 4.17305 10.3466 4.48945C10.3747 4.81992 10.5528 5.16445 10.8505 5.46211L16.5247 11.2816C16.7919 11.5535 16.7919 11.9988 16.52 12.2707C16.2599 12.5309 15.8005 12.5355 15.5333 12.2777L7.73095 4.67227C7.15439 4.0957 6.40908 3.99961 5.9122 4.49883C5.66845 4.74258 5.5583 5.02852 5.58408 5.34492C5.61455 5.67539 5.79267 6.02227 6.08798 6.31523L13.7356 14.1574C14.0052 14.4293 14.0028 14.8746 13.731 15.1465C13.4708 15.4066 13.0114 15.4113 12.7442 15.1535L6.37627 8.94492C5.7997 8.36367 5.05439 8.26992 4.55752 8.76914C3.95048 9.37617 4.27392 10.1285 4.7333 10.5902L10.9606 17.0215C11.2278 17.2934 11.2255 17.7363 10.9536 18.0059C10.6911 18.2684 10.2364 18.2707 9.96923 18.0152L6.07158 14.2699C5.74345 13.9395 5.36611 13.7613 5.00517 13.7613Z" fill="#EDA600"/>
<path d="M19.8673 10.9062C18.5806 13.5336 18.747 17.2109 20.6783 20.1617C20.8962 20.5602 21.2689 20.3656 21.079 19.9555C18.747 14.9656 21.1915 11.3703 21.1915 11.3703L19.8673 10.9062Z" fill="#EDA600"/>
<defs>
<radialGradient id="paint0_radial_841_3850" cx="0" cy="0" r="1" gradientUnits="userSpaceOnUse" gradientTransform="translate(10.3258 8.90505) rotate(-45) scale(21.3299)">
<stop offset="0.3533" stop-color="#FFCA28"/>
<stop offset="0.8723" stop-color="#FFB300"/>
</radialGradient>
</defs>
</svg>
