<svg width="30" height="30" viewBox="0 0 30 30" fill="none" xmlns="http://www.w3.org/2000/svg">
    <defs>
        <radialGradient id="paint0_radial_1053_1456" cx="0" cy="0" r="1" gradientUnits="userSpaceOnUse" gradientTransform="translate(8.66765 5.9968) scale(4.40836)">
            <stop offset="0.2793" stop-color="#FFCA28"/>
            <stop offset="0.7972" stop-color="#FFB300"/>
        </radialGradient>
        <radialGradient id="paint1_radial_1053_1456" cx="0" cy="0" r="1" gradientUnits="userSpaceOnUse" gradientTransform="translate(14.3817 5.83437) scale(8.48906)">
            <stop stop-color="#FFCA28"/>
            <stop offset="1" stop-color="#FFB300"/>
        </radialGradient>
        <radialGradient id="paint2_radial_1053_1456" cx="0" cy="0" r="1" gradientUnits="userSpaceOnUse" gradientTransform="translate(12.4332 14.1945) scale(14.6316 13.7878)">
            <stop offset="0.242" stop-color="#FFCA28"/>
            <stop offset="0.7972" stop-color="#FFB300"/>
        </radialGradient>
    </defs>
<path d="M18.2651 13.2477C16.0362 13.2477 11.4307 9.52109 11.1518 9.29375C10.6127 8.75234 9.46898 7.35078 10.1487 5.79687C10.294 5.46172 10.6104 5.29297 11.0838 5.29297C11.658 5.29297 12.401 5.55312 13.069 5.98906L19.0432 10.6039C19.3807 10.8594 19.5401 11.2156 19.5143 11.6656C19.4909 12.0898 19.2987 12.5727 18.9823 12.9898C18.8276 13.1633 18.5932 13.2477 18.2651 13.2477Z" fill="url(#paint0_radial_1053_1456)"/>
<path d="M11.0836 5.64062C11.5898 5.64062 12.2555 5.875 12.8648 6.27109L18.832 10.8836C19.0711 11.0641 19.1789 11.3125 19.1601 11.643C19.1414 11.9945 18.9773 12.4023 18.7078 12.7633C18.6656 12.8078 18.5555 12.8945 18.2601 12.8945C16.4789 12.8945 12.7219 10.1266 11.3859 9.03203C10.8937 8.53281 9.87889 7.28125 10.4672 5.93594C10.5094 5.84688 10.6008 5.64062 11.0836 5.64062ZM11.0836 4.9375C10.514 4.9375 10.0476 5.15078 9.82733 5.65234C9.19217 7.10313 9.91874 8.55391 10.9148 9.55234C10.9148 9.55234 15.8226 13.5977 18.2625 13.5977C18.675 13.5977 19.0172 13.4805 19.2539 13.2109C19.9523 12.2875 20.1797 11.0219 19.2562 10.3234L13.2726 5.69687C12.5625 5.23047 11.7539 4.9375 11.0836 4.9375Z" fill="#EDA600"/>
<path d="M22.6125 20.9082C20.4328 20.8848 19.7297 16.1574 19.643 14.334C19.6383 14.2285 19.5867 14.1324 19.5023 14.0691C18.4969 13.3121 17.3719 10.7434 16.6547 8.58945C16.6336 8.52852 16.6195 8.49805 16.6172 8.4957C16.5726 8.41602 16.5 8.35508 16.4109 8.32695C14.8008 7.83242 12.3445 5.83086 11.3625 4.67305C10.8211 4.03555 10.4742 2.6832 10.8375 1.90039C11.0133 1.5207 11.3273 1.33789 11.7984 1.33789C12.3937 1.33789 13.214 1.64258 14.1726 2.22148C14.4398 2.41602 19.0195 5.7582 20.2195 7.08711C21.4406 8.43945 22.9476 11.4535 22.9617 11.484C24.8953 15.5668 24.6117 19.2441 24.5156 20.0785C23.714 20.4629 22.8117 20.866 22.6125 20.9082Z" fill="url(#paint1_radial_1053_1456)"/>
<path d="M11.8006 1.68945C12.1686 1.68945 12.8459 1.83242 13.9803 2.51445C14.3483 2.78164 18.8014 6.03477 19.9615 7.32148C21.1264 8.61055 22.5725 11.4887 22.6475 11.634C24.4147 15.3723 24.2881 18.7707 24.1897 19.8441C23.517 20.1629 22.8045 20.4793 22.5725 20.552C20.8522 20.4582 20.0951 16.3262 19.9967 14.3152C19.9873 14.1066 19.8842 13.9121 19.7178 13.7855C19.1295 13.3426 18.0608 11.6855 16.992 8.47695C16.9733 8.4207 16.9592 8.38086 16.9287 8.32461C16.8397 8.16289 16.6943 8.04336 16.5186 7.98945C15.8131 7.77148 14.8545 7.21836 13.8162 6.42852C12.9608 5.77695 12.1029 4.99648 11.6342 4.44336C11.1162 3.83398 10.8818 2.6457 11.1584 2.0457C11.2404 1.86992 11.3811 1.68945 11.8006 1.68945ZM11.8006 0.986328C9.82013 0.986328 10.1295 3.76133 11.0975 4.90039C12.0303 5.99961 14.5428 8.11836 16.3123 8.66445C16.3217 8.68086 17.7631 13.1973 19.2936 14.3504C19.2936 14.3504 19.6217 21.2598 22.6311 21.2598C22.8936 21.2598 24.8436 20.3129 24.8436 20.3129C24.8436 20.3129 25.5467 16.1129 23.2803 11.3293C23.2803 11.3293 21.7545 8.25898 20.4842 6.85273C19.2139 5.44648 14.3693 1.93086 14.3693 1.93086C13.2561 1.25586 12.417 0.986328 11.8006 0.986328Z" fill="#EDA600"/>
<path d="M12.0164 28.6648C11.4867 28.6602 10.1461 27.9031 9.9609 27.7414C9.95152 27.732 9.93277 27.718 9.9234 27.7109C9.9023 27.6969 7.8023 26.1945 6.74293 24.718C5.7023 23.2695 5.36715 20.4313 5.3648 20.4031C5.23121 19.475 5.33199 18.2984 6.55308 17.893C6.74762 17.8273 6.94449 17.7945 7.14137 17.7945C8.06012 17.7945 8.78199 18.4953 9.15699 19.1586C9.29762 19.5125 10.7437 22.9625 13.4976 22.9625C13.9617 22.9625 14.4398 22.8617 14.9179 22.6602C16.6031 21.9547 17.2593 20.7008 17.5125 19.7727C17.932 18.2375 17.5312 16.5687 16.9406 15.7789C16.3171 14.9422 15.2343 14.443 14.0484 14.443C13.5914 14.443 13.1507 14.518 12.7781 14.6633C12.2086 14.8836 11.6953 15.2797 11.1984 15.6617C10.7109 16.0367 10.207 16.4258 9.64215 16.6602C9.19683 16.8453 8.77496 16.9344 8.35074 16.9344C7.66168 16.9344 6.98199 16.693 6.27183 16.1984C5.95777 15.9805 5.80308 15.7016 5.81246 15.3711C5.82418 14.9164 6.14996 14.4195 6.64449 14.1102C8.26637 12.9781 10.7156 11.2766 10.9476 11.1336C11.7257 10.7703 12.9539 10.4727 13.6898 10.4727C13.9195 10.4727 14.0484 10.5008 14.1164 10.5219L19.1671 12.1625C20.2406 12.5211 21.8484 15.0102 22.6218 16.2078L22.8351 16.5359C22.8492 16.557 22.8632 16.5758 22.8796 16.5922C22.8984 16.6109 24.8296 18.5703 24.4453 20.2625C24.2812 20.9844 23.6414 22.5969 22.5961 24.9219C21.5789 27.1859 19.2281 28.6508 16.6101 28.6531L12.0164 28.6648Z" fill="url(#paint2_radial_1053_1456)"/>
<path d="M13.6897 10.8262C13.8936 10.8262 13.9826 10.852 14.0107 10.859L19.0522 12.4973C20.0107 12.816 21.6326 15.3285 22.3264 16.3996C22.4037 16.5191 22.474 16.6293 22.5397 16.7301C22.5654 16.7699 22.5959 16.8098 22.6311 16.8426C23.1373 17.3488 24.3865 18.9332 24.1006 20.1848C23.9904 20.6723 23.5826 21.8652 22.2725 24.7785C21.3115 26.916 19.0873 28.2988 16.6053 28.3035L12.0162 28.3105C11.6482 28.3082 10.4529 27.6801 10.1881 27.4715C10.167 27.4527 10.1459 27.434 10.1225 27.4199C10.1014 27.4059 8.05059 25.9387 7.02403 24.509C6.03966 23.1355 5.71387 20.3863 5.70919 20.3582C5.70919 20.3512 5.70684 20.3441 5.70684 20.3371C5.54278 19.1957 5.86387 18.4832 6.65841 18.2207C6.81778 18.1668 6.97716 18.141 7.13653 18.141C7.89591 18.141 8.50762 18.7363 8.83341 19.3082C9.03262 19.798 10.5631 23.309 13.4928 23.309C14.0037 23.309 14.5287 23.1988 15.049 22.9809C16.8654 22.2215 17.5709 20.8645 17.8451 19.8613C18.2975 18.1996 17.8709 16.4418 17.217 15.5652C16.5279 14.6418 15.3397 14.0887 14.0436 14.0887C13.5443 14.0887 13.0615 14.173 12.649 14.3324C12.0303 14.5715 11.4982 14.9816 10.9803 15.3801C10.4904 15.7598 10.0264 16.116 9.50372 16.334C9.10294 16.5004 8.72325 16.5824 8.34825 16.5824C7.73419 16.5824 7.12012 16.3621 6.47091 15.9098C6.25762 15.7598 6.1545 15.5863 6.16153 15.3777C6.16856 15.0426 6.43809 14.6512 6.8295 14.4051C6.83887 14.398 6.84825 14.3934 6.85762 14.3863C8.35762 13.3387 10.7951 11.6441 11.1139 11.4402C11.8451 11.1074 13.0147 10.8262 13.6897 10.8262ZM13.6897 10.123C12.8436 10.123 11.5568 10.4582 10.7857 10.8215C10.7037 10.8496 6.4545 13.8145 6.4545 13.8145C5.44434 14.4496 5.01544 15.7527 6.07012 16.4887C6.85762 17.0395 7.60997 17.2879 8.35059 17.2879C8.82872 17.2879 9.30216 17.1824 9.77559 16.9879C10.9779 16.4887 11.8451 15.4012 12.9022 14.9934C13.2303 14.8668 13.6264 14.7965 14.0436 14.7965C14.9787 14.7965 16.0217 15.1434 16.6545 15.9895C17.5686 17.2129 18.0467 20.9676 14.7772 22.3363C14.3201 22.5285 13.8912 22.6105 13.4928 22.6105C10.8584 22.6105 9.47091 19.0082 9.47091 19.0082C8.99981 18.1574 8.142 17.4426 7.13887 17.4426C6.91387 17.4426 6.6795 17.4777 6.44044 17.5574C5.142 17.9863 4.83497 19.1934 5.01309 20.4402C5.01309 20.4402 5.34825 23.3793 6.4545 24.9215C7.56075 26.4637 9.717 27.9941 9.717 27.9941C9.89512 28.1652 11.3553 29.0113 12.0115 29.016L16.6076 29.009C19.3568 29.0043 21.8412 27.4551 22.9147 25.0691C23.742 23.227 24.5811 21.2418 24.7873 20.3418C25.2209 18.4387 23.1279 16.3457 23.1279 16.3457C22.317 15.1035 20.5709 12.2629 19.2748 11.8316L14.2287 10.191C14.0881 10.1441 13.9029 10.123 13.6897 10.123Z" fill="#EDA600"/>
</svg>
