<svg width="24" height="24" viewBox="0 0 24 24" fill="none" xmlns="http://www.w3.org/2000/svg">
<path d="M17.6232 1.68164C13.5151 1.68164 12.0057 5.87977 12.0057 5.87977C12.0057 5.87977 10.517 1.68164 6.3807 1.68164C3.27195 1.68164 -0.271798 4.14539 1.03695 9.74602C2.3457 15.3466 12.017 22.3235 12.017 22.3235C12.017 22.3235 21.6526 15.3466 22.9632 9.74602C24.272 4.14539 20.9832 1.68164 17.6232 1.68164Z" fill="#F44336"/>
<path d="M5.74698 2.09977C8.97198 2.09977 10.5732 5.56664 11.0907 6.97102C11.1639 7.17164 11.4432 7.17727 11.5276 6.98227L12.0001 5.87789C11.3345 3.75164 9.50448 1.68164 6.38073 1.68164C5.08698 1.68164 3.72011 2.10914 2.65698 3.01102C3.59636 2.39414 4.69698 2.09977 5.74698 2.09977Z" fill="#CC3333"/>
<path d="M17.6233 1.68164C16.6315 1.68164 15.7277 1.89727 15.0227 2.33227C15.5177 2.14102 16.1308 2.09977 16.7383 2.09977C19.7777 2.09977 22.4983 4.40414 21.2702 9.73102C20.2165 14.3041 14.059 19.8523 12.1783 21.9691C12.0583 22.1041 12.0171 22.3216 12.0171 22.3216C12.0171 22.3216 21.6527 15.3448 22.9633 9.74414C24.2721 4.14539 20.989 1.68164 17.6233 1.68164Z" fill="#CC3333"/>
<path d="M3.19499 4.65389C3.89811 3.77639 5.15436 3.05076 6.21936 3.88702C6.79499 4.33889 6.54374 5.26514 6.02811 5.65514C5.27811 6.22514 4.62561 6.56827 4.16811 7.46077C3.89436 7.99702 3.72936 8.58389 3.64499 9.18202C3.61124 9.41827 3.30186 9.47639 3.18561 9.26827C2.39436 7.86577 2.16936 5.93452 3.19499 4.65389Z" fill="#FF8A80"/>
<path d="M14.4677 6.49891C14.1377 6.49891 13.9052 6.18016 14.0252 5.87266C14.2483 5.30641 14.5371 4.75891 14.8839 4.27141C15.3977 3.55141 16.3746 3.13141 16.9933 3.56829C17.6271 4.01454 17.5446 4.90704 17.1002 5.33829C16.1458 6.26266 14.9421 6.49891 14.4677 6.49891Z" fill="#FF8A80"/>
</svg>
