<svg width="24" height="24" viewBox="0 0 24 24" fill="none" xmlns="http://www.w3.org/2000/svg">
<path d="M19.4345 11.7557H19.4326C19.4101 11.2963 18.9226 10.867 18.0807 10.6138C16.2788 10.072 14.2801 9.75508 12.0001 9.73633C9.72196 9.75508 7.72321 10.072 5.91946 10.6138C5.07758 10.867 4.59384 11.2963 4.56946 11.7557H4.56571V11.8157C4.56571 11.8195 4.56571 11.8213 4.56571 11.8251V21.1457C4.54508 21.6707 5.13196 22.2332 6.48946 22.6176C7.89196 23.0151 9.78946 23.272 11.9982 23.272C14.207 23.272 16.1045 23.0151 17.507 22.6176C18.9301 22.2145 19.5057 21.6163 19.4232 21.0707H19.4307V11.7557H19.4345Z" fill="#E2A610"/>
<path d="M13.4815 20.2938L12.6396 18.31C13.1196 18.0775 13.4515 17.5863 13.4515 17.0163C13.4515 16.2213 12.8065 15.5781 12.0134 15.5781C11.2202 15.5781 10.5752 16.2231 10.5752 17.0163C10.5752 17.5506 10.8677 18.0175 11.3009 18.265L10.5171 20.3069C10.4177 20.5656 10.609 20.8413 10.8846 20.8413H13.1196C13.4009 20.8413 13.5902 20.5525 13.4815 20.2938Z" fill="#4E342E"/>
<path d="M13.4008 20.1094H10.5901L10.5151 20.3062C10.4158 20.565 10.607 20.8406 10.8826 20.8406H13.1176C13.4008 20.8406 13.5901 20.5519 13.4795 20.2931L13.4008 20.1094Z" fill="#9E740B"/>
<path d="M11.4282 17.8861C11.462 17.7886 11.4264 17.6836 11.3439 17.6236C11.2314 17.5411 11.0795 17.3948 10.9839 17.1623C10.6351 16.3223 11.0495 15.9492 11.0495 15.9492C10.757 16.2117 10.5732 16.5923 10.5732 17.0161C10.5732 17.5505 10.8657 18.0173 11.2989 18.2648L11.4282 17.8861Z" fill="#9E740B"/>
<path d="M13.024 15.9922C13.024 15.9922 13.4365 16.8209 12.964 17.3516C12.8027 17.5316 12.6659 17.6272 12.5646 17.6741C12.4652 17.7209 12.4202 17.8391 12.4671 17.9384L12.6415 18.3059C13.1215 18.0734 13.4534 17.5822 13.4534 17.0122C13.4496 16.4028 13.024 15.9922 13.024 15.9922Z" fill="#9E740B"/>
<path d="M17.7639 10.4899C16.0558 9.99305 14.1602 9.7043 12.0002 9.68555C9.84017 9.70242 7.94454 9.99305 6.23642 10.488C4.52454 10.9849 4.35392 12.2243 6.77829 12.888C8.10767 13.2518 9.90767 13.4862 12.0002 13.4862C14.0927 13.4862 15.8927 13.2518 17.222 12.888C19.6464 12.2262 19.4758 10.9849 17.7639 10.4899Z" fill="#FDD835"/>
<path d="M17.2781 11.6636C17.2781 11.6636 17.2087 11.9861 16.2993 11.9861C15.39 11.9861 15.1968 11.6636 15.1968 11.6636V7.52922C15.1968 5.65047 13.7625 4.12422 11.9981 4.12422C10.2337 4.12422 8.79935 5.65234 8.79935 7.52922V11.6655C8.79935 11.6655 8.40372 11.988 7.68372 11.988C6.96372 11.988 6.71997 11.6655 6.71997 11.6655V7.52922C6.71997 4.50297 9.0881 2.04297 11.9981 2.04297C14.9081 2.04297 17.2762 4.50484 17.2762 7.52922V11.6636H17.2781Z" fill="#84B0C1"/>
<path fill-rule="evenodd" clip-rule="evenodd" d="M11.9981 2.22658C9.1961 2.22658 6.90358 4.59765 6.90358 7.52923V11.5891C6.92846 11.6097 6.966 11.6368 7.01836 11.6648C7.14129 11.7304 7.35229 11.8044 7.68373 11.8044C8.0157 11.8044 8.27015 11.7301 8.43947 11.6579C8.51569 11.6253 8.57472 11.5932 8.61575 11.5683V7.52923C8.61575 5.56197 10.1216 3.94063 11.9981 3.94063C13.8745 3.94063 15.3805 5.56003 15.3805 7.52923V11.592C15.402 11.6099 15.4366 11.6345 15.4889 11.6605C15.6198 11.7256 15.866 11.8025 16.2994 11.8025C16.7353 11.8025 16.9421 11.7247 17.0335 11.6685C17.0645 11.6494 17.0826 11.6326 17.0926 11.6215V7.52923C17.0926 4.59948 14.8001 2.22658 11.9981 2.22658ZM17.2781 11.6636C17.4576 11.7022 17.4575 11.7024 17.4575 11.7027L17.4574 11.7032L17.4572 11.7042L17.4567 11.7063L17.4555 11.7108C17.4547 11.714 17.4537 11.7176 17.4525 11.7214C17.4501 11.7292 17.447 11.7381 17.4428 11.7481C17.4345 11.768 17.4223 11.7918 17.4045 11.8178C17.3686 11.8702 17.3123 11.9281 17.226 11.9812C17.0553 12.0862 16.7728 12.1697 16.2994 12.1697C15.8234 12.1697 15.5183 12.0853 15.3253 11.9892C15.2287 11.9411 15.1614 11.8907 15.1158 11.8481C15.0931 11.8268 15.076 11.8077 15.0636 11.7922C15.0574 11.7844 15.0523 11.7776 15.0483 11.7718C15.0463 11.7689 15.0446 11.7663 15.0431 11.764L15.041 11.7607L15.0401 11.7593L15.0397 11.7586L15.0395 11.7583C15.0394 11.7581 15.0393 11.7579 15.1969 11.6636L15.0393 11.7579L15.0133 11.7144V7.52923C15.0133 5.74092 13.6505 4.30783 11.9981 4.30783C10.3458 4.30783 8.98295 5.74273 8.98295 7.52923V11.7527L8.91536 11.8078L8.79935 11.6655C8.91536 11.8078 8.91542 11.8077 8.91536 11.8078L8.91509 11.808L8.91479 11.8082L8.91407 11.8088L8.91218 11.8103C8.91151 11.8109 8.91076 11.8115 8.90992 11.8121C8.90893 11.8129 8.90783 11.8137 8.90661 11.8147C8.90211 11.8181 8.89602 11.8227 8.88836 11.8282C8.87305 11.8393 8.85143 11.8541 8.82364 11.8715C8.7681 11.9063 8.68772 11.9512 8.58361 11.9956C8.37512 12.0846 8.07175 12.1716 7.68373 12.1716C7.29517 12.1716 7.02429 12.0843 6.84535 11.9887C6.75639 11.9412 6.69168 11.8924 6.64751 11.8532C6.62546 11.8337 6.60859 11.8166 6.59642 11.8033C6.59034 11.7966 6.58543 11.791 6.58163 11.7864C6.57973 11.7841 6.57811 11.7821 6.57676 11.7804L6.57493 11.778L6.57417 11.7771L6.57383 11.7766L6.57366 11.7764C6.57358 11.7763 6.57351 11.7762 6.71998 11.6655L6.57351 11.7762L6.53638 11.7271V7.52923C6.53638 4.4083 8.98011 1.85938 11.9981 1.85938C15.0161 1.85938 17.4598 4.41022 17.4598 7.52923V11.48H17.5054L17.4576 11.7022L17.2781 11.6636Z" fill="#84B0C1"/>
<path d="M9.62048 4.04217C8.65673 4.61592 8.50861 5.00405 8.24048 5.18217C8.04173 5.31342 7.77736 5.20842 7.94986 4.7528C8.09798 4.3628 8.45423 3.62405 9.34298 3.05592C10.873 2.07717 12.193 2.12217 12.1217 2.8703C12.0617 3.53217 10.648 3.43092 9.62048 4.04217Z" fill="#B9E4EA"/>
</svg>
