<svg width="24" height="24" viewBox="0 0 24 24" fill="none" xmlns="http://www.w3.org/2000/svg">
<path d="M14 12C14 11.4477 13.5523 11 13 11L7.29445 11L8.72331 9.59063C9.09223 9.22676 9.09223 8.63679 8.72331 8.27291C8.3544 7.90903 7.75627 7.90903 7.38736 8.27291L4.27668 11.3411C3.90777 11.705 3.90777 12.295 4.27669 12.6589L7.38736 15.7271C7.75627 16.091 8.3544 16.091 8.72331 15.7271C9.09223 15.3632 9.09223 14.7732 8.72331 14.4094L7.29445 13L13 13C13.5523 13 14 12.5523 14 12Z" fill="#707F8D"/>
<path fill-rule="evenodd" clip-rule="evenodd" d="M9 5C9 4.44772 9.44771 4 10 4H16C17.8856 4 18.8284 4 19.4142 4.58579C20 5.17157 20 6.11438 20 8V16C20 17.8856 20 18.8284 19.4142 19.4142C18.8284 20 17.8856 20 16 20H10C9.44771 20 9 19.5523 9 19C9 18.4477 9.44771 18 10 18H16C16.9428 18 17.4142 18 17.7071 17.7071C18 17.4142 18 16.9428 18 16V8C18 7.05719 18 6.58579 17.7071 6.29289C17.4142 6 16.9428 6 16 6H10C9.44771 6 9 5.55228 9 5Z" fill="#707F8D"/>
</svg>
