<svg width="24" height="24" viewBox="0 0 24 24" fill="none" xmlns="http://www.w3.org/2000/svg">
<path d="M17.5238 7.39738C18.7819 7.118 20.4206 5.86925 20.67 5.25425C20.8163 4.89425 20.0869 4.33175 19.8919 4.10488C19.4456 3.58738 19.6256 3.33238 19.7981 2.7155C19.995 2.01425 19.5281 1.23988 18.8663 0.936127C18.2044 0.632377 17.4131 0.728002 16.7475 1.02425C16.0819 1.3205 15.5138 1.79675 14.9569 2.2655C14.55 2.00863 13.9013 0.874252 12.8513 1.61113C12.1256 2.11925 12.06 3.2255 12.1538 4.10863C12.3731 6.14675 12.8756 7.20425 13.8225 7.48925C15.0188 7.84925 16.3425 7.65988 17.5238 7.39738Z" fill="#FFCA28"/>
<path d="M19.5675 1.53516C19.4081 4.28203 16.7288 6.10453 15.4575 6.90703L16.2825 7.61578C16.2825 7.61578 16.8056 7.62703 17.5219 7.39828C18.75 7.00828 20.5444 5.90578 20.6681 5.25516C20.85 4.30828 19.8788 4.51453 19.6594 3.76641C19.545 3.37078 20.2163 2.62266 19.5675 1.53516Z" fill="#E2A610"/>
<path d="M14.9586 2.26719C14.9586 2.26719 14.4805 1.77781 14.1261 1.55469C13.9499 1.88656 13.8243 2.24656 13.7624 2.61781C13.6518 3.27031 13.7624 4.19656 14.023 4.88656C14.0643 4.99344 14.218 4.97656 14.2349 4.86406C14.4599 3.38094 14.9586 2.26719 14.9586 2.26719Z" fill="#E2A610"/>
<path d="M11.6175 7.15584C11.6175 7.15584 5.76941 7.78771 3.13128 12.8652C0.493158 17.9427 2.73566 21.0215 5.10941 22.1427C7.48316 23.264 13.4644 23.6596 17.355 22.7371C21.2457 21.8146 22.2188 19.9021 22.0369 18.0552C21.7725 15.359 19.2675 13.7015 19.2675 13.7015C19.2675 13.7015 19.3669 10.3715 16.7832 8.20959C14.49 6.28959 11.6175 7.15584 11.6175 7.15584Z" fill="#FFCA28"/>
<path d="M14.0175 15.7005C12.7632 14.118 11.2819 13.9062 10.8075 13.338C10.5488 13.0287 10.3969 12.7155 10.455 12.3274C10.5169 11.9149 10.995 11.6299 11.3663 11.5605C11.7994 11.478 12.8325 11.5212 13.7007 12.348C13.9069 12.543 13.8319 12.8468 13.8263 13.1187C13.8113 13.7018 14.6457 14.268 15.3207 13.7805C15.9975 13.2912 15.4782 12.2018 15.0413 11.673C14.7113 11.2737 13.515 10.3943 12.0282 10.2555C11.61 10.2162 9.92817 9.96678 8.95692 11.8137C8.67755 12.3443 8.57442 13.6268 10.0369 14.7105C10.3425 14.9374 11.9288 15.7437 12.3694 16.2668C13.1325 17.1724 12.6094 17.9693 12.0132 18.0743C10.3875 18.3593 9.46692 17.4799 9.2963 16.998C9.17442 16.6549 9.30192 16.2837 9.14442 15.9612C8.98317 15.6293 8.65317 15.498 8.30442 15.6087C7.16067 15.9724 7.52442 17.223 8.03067 17.9112C8.57255 18.648 9.23817 19.0924 9.9863 19.3362C12.7782 20.2455 14.1207 18.8093 14.355 17.7574C14.5275 16.9868 14.5088 16.3193 14.0175 15.7005Z" fill="#6B4B46"/>
<path fill-rule="evenodd" clip-rule="evenodd" d="M10.598 16.7476C11.0005 14.4931 11.7055 11.5778 12.918 8.98828L13.767 9.38582C12.6039 11.87 11.9167 14.6951 11.5209 16.9124C11.3235 18.0184 11.1995 18.9674 11.125 19.639C11.0877 19.9747 11.0629 20.2409 11.0474 20.4224C11.0396 20.5131 11.0342 20.5827 11.0308 20.6292C11.029 20.6524 11.0278 20.6699 11.027 20.6814L11.0261 20.694L11.0259 20.6975C11.0259 20.6975 11.0259 20.6975 10.5581 20.6677C10.0903 20.6378 10.0903 20.6377 10.0903 20.6376L10.0907 20.632L10.0917 20.6169C10.0926 20.6038 10.094 20.5847 10.0958 20.5598C10.0995 20.51 10.1052 20.4369 10.1133 20.3426C10.1294 20.1539 10.155 19.8798 10.1932 19.5356C10.2696 18.8474 10.3963 17.8776 10.598 16.7476Z" fill="#6B4B46"/>
<path d="M15.3132 5.9926C16.8957 6.50822 17.2463 7.93885 17.132 8.32885C16.9951 8.78635 15.242 7.0051 12.6357 7.11197C11.7245 7.14947 11.9888 6.59072 12.4107 6.26822C12.9676 5.8426 13.9032 5.5351 15.3132 5.9926Z" fill="#6D4C41"/>
<path d="M15.3132 5.9926C16.8957 6.50822 17.2463 7.93885 17.132 8.32885C16.9951 8.78635 15.242 7.0051 12.6357 7.11197C11.7245 7.14947 11.9888 6.59072 12.4107 6.26822C12.9676 5.8426 13.9032 5.5351 15.3132 5.9926Z" fill="#6B4B46"/>
<path d="M18.0918 11.0361C18.2906 10.8993 18.9581 11.1355 19.1456 12.4424C19.2374 13.0818 19.2656 13.7005 19.2656 13.7005C19.2656 13.7005 18.4781 12.9936 18.2174 12.4968C17.8893 11.8686 17.7618 11.2611 18.0918 11.0361Z" fill="#E2A610"/>
</svg>
