<svg width="24" height="24" viewBox="0 0 24 24" fill="none" xmlns="http://www.w3.org/2000/svg">
<path fill-rule="evenodd" clip-rule="evenodd" d="M9.88658 18.6747C10.5715 18.4945 11.1963 18.1356 11.697 17.6348L18.357 10.9749C19.7238 9.60804 19.7238 7.39196 18.357 6.02513C16.9902 4.65829 14.7741 4.65829 13.4072 6.02513L6.74729 12.6851C6.2465 13.1859 5.88765 13.8106 5.70742 14.4955L4.65113 18.5094C4.45624 19.25 5.13209 19.9259 5.8727 19.731L9.88658 18.6747ZM16.9423 7.43934C17.5281 8.02513 17.5281 8.97487 16.9423 9.56066L15.8812 10.6218L13.7599 8.50044L14.821 7.43934C15.4068 6.85355 16.3565 6.85355 16.9423 7.43934ZM7.10835 17.029L7.64111 15.0045C7.73123 14.6621 7.91065 14.3497 8.16104 14.0993L12.3457 9.91466L14.467 12.036L10.2824 16.2206C10.032 16.471 9.71959 16.6504 9.37714 16.7406L7.35267 17.2733C7.20454 17.3123 7.06937 17.1771 7.10835 17.029Z" fill="#707F8D"/>
</svg>
