<svg width="24" height="24" viewBox="0 0 24 24" fill="none" xmlns="http://www.w3.org/2000/svg">
<path d="M19.3435 5.8423C19.8356 6.00479 20.1082 6.53716 19.9525 7.03138L18.7888 10.7251L18.6395 11.1987C18.4838 11.6929 17.9587 11.9618 17.4667 11.7994L16.9303 11.6222L13.3178 10.4293C12.8258 10.2668 12.5531 9.73441 12.7088 9.24019C12.8645 8.74596 13.3897 8.47703 13.8817 8.63952L15.7811 9.26676L16.0004 9.33752C15.0051 7.92371 13.3604 7 11.5 7C8.46243 7 6 9.46243 6 12.5C6 15.5376 8.46243 18 11.5 18C13.7405 18 15.668 16.6604 16.5254 14.7384C16.7148 14.3138 17.1139 14 17.5789 14C18.2357 14 18.7304 14.6061 18.4922 15.2183C17.4036 18.0167 14.6834 20 11.5 20C7.35786 20 4 16.6421 4 12.5C4 8.35786 7.35786 5 11.5 5C14.0301 5 16.2676 6.25282 17.6259 8.17194L18.1707 6.44297C18.3264 5.94874 18.8515 5.67981 19.3435 5.8423Z" fill="#707F8D"/>
</svg>
