<svg width="24" height="24" viewBox="0 0 24 24" fill="none" xmlns="http://www.w3.org/2000/svg">
<path d="M15 8C15 7.44772 14.5523 7 14 7L7.29445 7L8.72331 5.59063C9.09223 5.22676 9.09223 4.63679 8.72331 4.27291C8.3544 3.90903 7.75627 3.90903 7.38736 4.27291L4.27668 7.34114C3.90777 7.70502 3.90777 8.29498 4.27669 8.65886L7.38736 11.7271C7.75627 12.091 8.3544 12.091 8.72331 11.7271C9.09223 11.3632 9.09223 10.7732 8.72331 10.4094L7.29445 9L14 9C14.5523 9 15 8.55228 15 8Z" fill="#707F8D"/>
<path d="M9 16C9 16.5523 9.44772 17 10 17L16.7055 17L15.2767 18.4094C14.9078 18.7732 14.9078 19.3632 15.2767 19.7271C15.6456 20.091 16.2437 20.091 16.6126 19.7271L19.7233 16.6589C20.0922 16.295 20.0922 15.705 19.7233 15.3411L16.6126 12.2729C16.2437 11.909 15.6456 11.909 15.2767 12.2729C14.9078 12.6368 14.9078 13.2268 15.2767 13.5906L16.7055 15L10 15C9.44772 15 9 15.4477 9 16Z" fill="#707F8D"/>
</svg>
