<svg width="24" height="24" viewBox="0 0 24 24" fill="none" xmlns="http://www.w3.org/2000/svg">
<path d="M12.2919 8.79673C9.92711 8.37795 7.37288 9.29832 5.19134 12.2979C4.8665 12.7446 4.96525 13.37 5.4119 13.6948C5.85855 14.0197 6.48397 13.9209 6.80881 13.4743C8.62726 10.9739 10.4666 10.5046 11.9432 10.7661C13.4942 11.0408 14.8953 12.1647 15.6884 13.3525L13.6882 13.3388C13.17 13.3352 12.7529 13.7524 12.7564 14.2706C12.76 14.7887 13.1829 15.2117 13.7011 15.2152L18.0702 15.2452C18.5884 15.2488 19.0056 14.8316 19.002 14.3135L18.972 9.94432C18.9684 9.42616 18.5455 9.00322 18.0273 8.99966C17.5092 8.9961 17.092 9.41327 17.0955 9.93143L17.1091 11.8993C16.0537 10.4901 14.3348 9.1585 12.2919 8.79673Z" fill="#707F8D"/>
</svg>
