<svg width="16" height="16" viewBox="0 0 16 16" fill="none" xmlns="http://www.w3.org/2000/svg">
<path fill-rule="evenodd" clip-rule="evenodd" d="M8 16C12.4183 16 16 12.4183 16 8C16 3.58172 12.4183 0 8 0C3.58172 0 0 3.58172 0 8C0 12.4183 3.58172 16 8 16ZM11.7526 6.65851C12.1162 6.24287 12.0741 5.61112 11.6585 5.24744C11.2429 4.88376 10.6111 4.92587 10.2474 5.34151L7.50355 8.47736C7.43307 8.55791 7.31167 8.56869 7.2281 8.50183L5.62472 7.21913C5.19346 6.87412 4.56417 6.94405 4.21917 7.3753C3.87416 7.80656 3.94408 8.43585 4.37534 8.78086L6.87532 10.7808C7.2932 11.1151 7.90019 11.0612 8.25259 10.6585L11.7526 6.65851Z" fill="#64AF8B"/>
</svg>
