<svg width="126" height="60" viewBox="0 0 126 60" fill="none" xmlns="http://www.w3.org/2000/svg">
<path d="M70 0H16C8.45753 0 4.68629 0 2.34315 2.34315C0 4.68629 0 8.45753 0 16V30V44C0 51.5425 0 55.3137 2.34315 57.6569C4.68629 60 8.45753 60 16 60H111C117.575 60 120.862 60 123.075 58.1841C123.48 57.8517 123.852 57.4802 124.184 57.0751C126 54.8624 126 51.575 126 45C126 38.425 126 35.1376 124.184 32.9249C123.852 32.5198 123.48 32.1483 123.075 31.8159C120.862 30 117.575 30 111 30H94C90.2288 30 88.3431 30 87.1716 28.8284C86 27.6569 86 25.7712 86 22V16C86 8.45753 86 4.68629 83.6569 2.34315C81.3137 0 77.5425 0 70 0Z" fill="#F4F6F9"/>
</svg>
