<svg width="24" height="24" viewBox="0 0 24 24" fill="none" xmlns="http://www.w3.org/2000/svg">
<path fill-rule="evenodd" clip-rule="evenodd" d="M12 17C8.44417 17 6.86745 18.8915 6.28091 19.6247C5.9359 20.056 5.3066 20.1259 4.87534 19.7809C4.44408 19.4359 4.37416 18.8066 4.71917 18.3753C5.46595 17.4418 7.5559 15 12 15C16.4442 15 18.5341 17.4418 19.2809 18.3753C19.6259 18.8066 19.556 19.4359 19.1247 19.7809C18.6935 20.1259 18.0642 20.056 17.7192 19.6247C17.1326 18.8915 15.5559 17 12 17Z" fill="#707F8D"/>
<path fill-rule="evenodd" clip-rule="evenodd" d="M12 12C13.6569 12 15 10.6569 15 9C15 7.34315 13.6569 6 12 6C10.3431 6 9 7.34315 9 9C9 10.6569 10.3431 12 12 12ZM12 14C14.7614 14 17 11.7614 17 9C17 6.23858 14.7614 4 12 4C9.23858 4 7 6.23858 7 9C7 11.7614 9.23858 14 12 14Z" fill="#707F8D"/>
</svg>
